# xmcd
#
# Track frame offsets:
#	150
#	12452
#	29524
#	45918
#	58680
#	72527
#	87067
#	99924
#	110756
#	122685
#
# Disc length: 1815 seconds
#
# Revision: 0
# Processed by: cddbd v1.5.2PL0 Copyright (c) Steve Scherf et al.
# Submitted via: EasyCDDAExtractor 16.0.1.1
#
DISCID=8007150a
DTITLE=Joe Diamond - My Angel's Gone To Hell
DYEAR=1994
DGENRE=Country
TTITLE0=Corpus Christi Sun
TTITLE1=Love Me Good-Bye
TTITLE2=Hasty The Hustler
TTITLE3=He Kept Every Promise I Made
TTITLE4=My Angel's Gone To Hell
TTITLE5=Nashville Red Eye
TTITLE6=Friend I Can Turn To
TTITLE7=FBI
TTITLE8=Last Run For The Roses
TTITLE9=If I Were You
EXTD=
EXTT0=
EXTT1=
EXTT2=
EXTT3=
EXTT4=
EXTT5=
EXTT6=
EXTT7=
EXTT8=
EXTT9=
PLAYORDER=
